<svg xmlns="http://www.w3.org/2000/svg" viewBox="0 0 24 24" fill="none">
  <path d="M12 14.25C13.2426 14.25 14.25 13.2426 14.25 12C14.25 10.7574 13.2426 9.75 12 9.75C10.7574 9.75 9.75 10.7574 9.75 12C9.75 13.2426 10.7574 14.25 12 14.25Z" fill="#61DAFB" />
  <path fillRule="evenodd" clipRule="evenodd" d="M12 5.25C7.44753 5.25 3.57184 5.73075 3.57184 7.5C3.57184 8.5305 4.11584 9.32609 5.08773 9.92994C5.7503 9.10644 8.73352 8.25 12 8.25C15.2665 8.25 18.2497 9.10644 18.9123 9.92994C19.8842 9.32609 20.4282 8.5305 20.4282 7.5C20.4282 5.73075 16.5525 5.25 12 5.25ZM5.08773 14.07C4.11584 13.4661 3.57184 12.6708 3.57184 11.64C3.57184 11.4198 3.71159 11.2225 3.94308 11.0377C4.46672 10.6205 5.40816 10.257 6.62462 10.0011C7.73373 9.76807 9.01268 9.61687 10.3641 9.57177C10.1241 10.3179 9.99999 11.1409 9.99999 12C9.99999 12.9239 10.1405 13.8063 10.41 14.6059C8.97609 14.5502 7.62457 14.3798 6.4672 14.1274C5.35156 13.9074 4.50046 13.5924 4.02328 13.2426C3.9522 13.1915 3.88887 13.1415 3.83267 13.0925C3.70019 12.9763 3.57184 12.8256 3.57184 12.6C3.57184 12.6 3.57184 12.6 3.57184 12.6V12.5979C3.57184 12.5981 3.57184 12.5979 3.57184 12.5979C3.57184 12.097 3.73128 11.8421 3.94308 11.6398C3.98135 11.6056 4.02171 11.5728 4.06359 11.5414C3.67086 11.8861 3.57184 12.2519 3.57184 12.6C3.57184 13.2631 4.15669 13.7361 5.08773 14.07ZM6.58905 14.4352C7.83201 14.7252 9.32661 14.91 10.9305 14.958C11.2313 15.9982 11.7073 16.9455 12.3108 17.7338C12.2186 17.739 12.1243 17.7424 12.0284 17.7441C12.0191 17.7443 12.0096 17.7447 12 17.7449C7.44754 17.7449 3.57184 17.2642 3.57184 15.4949C3.57184 14.5517 4.83559 13.8199 6.58905 14.4352ZM14.7059 14.3911C16.4232 14.1055 17.7447 13.6179 18.4268 13.1122C18.8396 12.8073 18.9968 12.5414 19.0234 12.345C19.042 12.2143 19.0011 12.0679 18.8482 11.9232C18.7483 11.8289 18.6191 11.7363 18.4645 11.6488C18.7 11.8178 18.8 11.9831 18.7783 12.1374C18.7536 12.3146 18.6215 12.5356 18.2796 12.7735C17.6654 13.211 16.4236 13.6516 14.8035 13.9194C14.9274 13.3214 14.9999 12.6734 14.9999 12C14.9999 11.1871 14.8803 10.4064 14.6579 9.67924C16.1757 9.74425 17.5246 9.96324 18.6307 10.285C20.0124 10.6844 20.4282 11.185 20.4282 11.64C20.4282 12.8694 18.0952 13.8689 14.7059 14.3911ZM18.9123 14.07C19.8842 13.4661 20.4282 12.6708 20.4282 11.64V15.49C20.4282 17.2592 16.5525 17.74 12 17.74C11.9789 17.74 11.9575 17.7398 11.9361 17.7393C11.9554 17.7398 11.9775 17.74 12 17.74C13.3864 17.74 14.6863 17.5964 15.7961 17.3629C16.2493 17.2641 16.6769 17.1521 17.0654 17.0272C17.6563 16.8348 18.0973 16.6155 18.3664 16.3737C18.7697 16.0046 18.8726 15.6446 18.7788 15.3361C18.6827 15.0201 18.39 14.7401 17.9232 14.4941C18.3214 14.6976 18.5762 14.93 18.6787 15.1859C18.7969 15.4819 18.7227 15.7833 18.3731 16.0917C18.1245 16.3094 17.7338 16.5048 17.2083 16.6754C16.7814 16.8163 16.2975 16.94 15.7624 17.0412C14.6554 17.2638 13.3556 17.4062 12 17.4062C11.5117 17.4062 11.0378 17.386 10.5809 17.347C11.5266 16.8635 12.4249 15.9784 13.1787 14.7342C13.7082 14.7871 14.2175 14.8137 14.7059 14.814C18.0952 14.2919 20.4282 13.2924 20.4282 12.063V12.0608C20.4282 12.0605 20.4282 12.0603 20.4282 12.06V12.06C20.4282 12.5614 20.0126 13.062 18.6307 13.4613C18.0473 13.6162 17.3864 13.7491 16.6701 13.8544C16.7877 13.5088 16.8903 13.1484 16.9726 12.7751C17.7242 12.6765 18.4171 12.5403 19.0234 12.3664C19.3289 12.2708 19.6005 12.1609 19.8286 12.0367C20.0555 12.0745 20.2679 12.1188 20.4556 12.169C20.4469 12.1613 20.4379 12.1532 20.4282 12.144C20.4282 12.144 20.4282 12.1438 20.4282 12.1435V12.144C20.4282 12.6684 19.8433 13.1414 18.9123 13.4753V14.07ZM12 18.75C16.5525 18.75 20.4282 18.2692 20.4282 16.5C20.4282 15.4695 19.8842 14.6739 18.9123 14.07C18.2497 14.8935 15.2665 15.75 12 15.75C8.73352 15.75 5.7503 14.8935 5.08773 14.07C4.11584 14.6739 3.57184 15.4691 3.57184 16.5C3.57184 18.2692 7.44753 18.75 12 18.75Z" fill="#61DAFB" />
</svg> 